<?xml version="1.0" encoding="iso-8859-1"?>
<!-- Generator: Adobe Illustrator 19.0.0, SVG Export Plug-In . SVG Version: 6.00 Build 0)  -->
<svg version="1.1" id="Capa_1" xmlns="http://www.w3.org/2000/svg" xmlns:xlink="http://www.w3.org/1999/xlink" x="0px" y="0px"
	 viewBox="0 0 508 508" style="enable-background:new 0 0 508 508;" xml:space="preserve">
<g>
	<g>
		<path d="M393.3,286.8v-90.1h-32.8v-90.1C360.5,47.8,312.7,0,254,0S147.5,47.8,147.5,106.5v90.1h-32.8v90.1
			c0,74,58.1,134.6,131.1,138.9v33.2h-98.3V508h213v-49.2h-98.3v-33.2C335.2,421.4,393.3,360.8,393.3,286.8z M163.9,106.5
			c0-49.7,40.4-90.1,90.1-90.1s90.1,40.4,90.1,90.1v180.3c0,49.7-40.4,90.1-90.1,90.1s-90.1-40.4-90.1-90.1V106.5z M344.2,475.2
			v16.4h-0.1H163.9v-16.4H344.2z M254,409.6c-67.8,0-122.9-55.1-122.9-122.8V213h16.4v73.7c0,58.7,47.8,106.5,106.5,106.5
			s106.5-47.8,106.5-106.5V213h16.4v73.7C376.9,354.5,321.8,409.6,254,409.6z"/>
	</g>
</g>
<g>
	<g>
		<rect x="180.3" y="196.6" width="147.5" height="16.4"/>
	</g>
</g>
<g>
</g>
<g>
</g>
<g>
</g>
<g>
</g>
<g>
</g>
<g>
</g>
<g>
</g>
<g>
</g>
<g>
</g>
<g>
</g>
<g>
</g>
<g>
</g>
<g>
</g>
<g>
</g>
<g>
</g>
</svg>
